<svg width="52" height="52" viewBox="0 0 52 52" fill="none" xmlns="http://www.w3.org/2000/svg">
<circle cx="26" cy="26" r="25" fill="#F1F2F4" stroke="#444444" stroke-width="2"/>
<path d="M23.6964 27.248C23.6244 27.248 22.0404 27.248 21.3204 27.248C20.9364 27.248 20.8164 27.104 20.8164 26.744C20.8164 25.784 20.8164 24.8 20.8164 23.84C20.8164 23.456 20.9604 23.336 21.3204 23.336H23.6964C23.6964 23.264 23.6964 21.872 23.6964 21.224C23.6964 20.264 23.8644 19.352 24.3444 18.512C24.8484 17.648 25.5684 17.072 26.4804 16.736C27.0804 16.52 27.6804 16.424 28.3284 16.424H30.6804C31.0164 16.424 31.1604 16.568 31.1604 16.904V19.64C31.1604 19.976 31.0164 20.12 30.6804 20.12C30.0324 20.12 29.3844 20.12 28.7364 20.144C28.0884 20.144 27.7524 20.456 27.7524 21.128C27.7284 21.848 27.7524 22.544 27.7524 23.288H30.5364C30.9204 23.288 31.0644 23.432 31.0644 23.816V26.72C31.0644 27.104 30.9444 27.224 30.5364 27.224C29.6724 27.224 27.8244 27.224 27.7524 27.224V35.048C27.7524 35.456 27.6324 35.6 27.2004 35.6C26.1924 35.6 25.2084 35.6 24.2004 35.6C23.8404 35.6 23.6964 35.456 23.6964 35.096C23.6964 32.576 23.6964 27.32 23.6964 27.248Z" fill="#444444"/>
</svg>
