<svg width="52" height="52" viewBox="0 0 52 52" fill="none" xmlns="http://www.w3.org/2000/svg">
<circle cx="26" cy="26" r="25" fill="#F1F2F4" stroke="#444444" stroke-width="2"/>
<g clip-path="url(#clip0_3_105)">
<path d="M28 14.5C21.37 14.5 16 19.78 16 26.292C16 31.503 19.438 35.922 24.205 37.48C24.805 37.591 25.025 37.226 25.025 36.913C25.025 36.633 25.015 35.891 25.01 34.908C21.672 35.619 20.968 33.326 20.968 33.326C20.422 31.965 19.633 31.601 19.633 31.601C18.546 30.87 19.717 30.885 19.717 30.885C20.922 30.967 21.555 32.1 21.555 32.1C22.625 33.903 24.364 33.382 25.05 33.081C25.158 32.318 25.467 31.799 25.81 31.504C23.145 31.209 20.344 30.195 20.344 25.677C20.344 24.39 20.809 23.338 21.579 22.513C21.444 22.215 21.039 21.016 21.684 19.392C21.684 19.392 22.689 19.076 24.984 20.601C25.944 20.339 26.964 20.209 27.984 20.203C29.004 20.209 30.024 20.339 30.984 20.601C33.264 19.076 34.269 19.392 34.269 19.392C34.914 21.016 34.509 22.215 34.389 22.513C35.154 23.338 35.619 24.39 35.619 25.677C35.619 30.207 32.814 31.204 30.144 31.494C30.564 31.848 30.954 32.571 30.954 33.676C30.954 35.254 30.939 36.522 30.939 36.905C30.939 37.214 31.149 37.583 31.764 37.465C36.565 35.917 40 31.495 40 26.292C40 19.78 34.627 14.5 28 14.5Z" fill="#444444"/>
</g>
<defs>
<clipPath id="clip0_3_105">
<rect width="24" height="24" fill="white" transform="translate(16 14)"/>
</clipPath>
</defs>
</svg>
